<svg width="100%" height="100%" viewBox="0 0 1580 200" preserveAspectRatio="xMidYMid meet" xmlns="http://www.w3.org/2000/svg">
<path d="M43.0441 54.04C42.2814 56.2693 41.2254 58.3813 39.8761 60.376C38.5267 62.312 36.8254 64.0133 34.7721 65.48C32.7774 66.9467 30.4307 68.12 27.7321 69C25.0921 69.8213 22.1001 70.232 18.7561 70.232C15.9987 70.232 13.4761 69.8213 11.1881 69C8.95873 68.12 7.05206 66.888 5.46806 65.304C3.88406 63.72 2.65206 61.8133 1.77206 59.584C0.892063 57.3547 0.452063 54.8613 0.452063 52.104C0.452063 48.2907 1.0974 44.6827 2.38806 41.28C3.7374 37.8773 5.61473 34.9147 8.02006 32.392C10.4254 29.8107 13.3294 27.7867 16.7321 26.32C20.1347 24.8533 23.9187 24.12 28.0841 24.12C30.7827 24.12 33.2174 24.5013 35.3881 25.264C37.5587 26.0267 39.4067 27.112 40.9321 28.52C42.4574 29.8693 43.6307 31.512 44.4521 33.448C45.2734 35.3253 45.6841 37.408 45.6841 39.696C45.6841 39.8133 45.6841 39.96 45.6841 40.136C45.6841 40.2533 45.6547 40.5467 45.5961 41.016L38.5561 42.072C38.6147 41.72 38.6441 41.456 38.6441 41.28C38.6441 41.104 38.6441 40.8987 38.6441 40.664C38.6441 39.256 38.4094 37.9653 37.9401 36.792C37.5294 35.56 36.8254 34.504 35.8281 33.624C34.8894 32.6853 33.6574 31.952 32.1321 31.424C30.6654 30.896 28.9054 30.632 26.8521 30.632C24.0947 30.632 21.5427 31.1893 19.1961 32.304C16.9081 33.4187 14.8841 34.944 13.1241 36.88C11.4227 38.7573 10.0734 40.9573 9.07606 43.48C8.1374 46.0027 7.66806 48.6427 7.66806 51.4C7.66806 55.5653 8.78273 58.6747 11.0121 60.728C13.2414 62.7227 16.2921 63.72 20.1641 63.72C22.5107 63.72 24.5934 63.3973 26.4121 62.752C28.2307 62.048 29.8147 61.168 31.1641 60.112C32.5134 58.9973 33.6281 57.736 34.5081 56.328C35.3881 54.92 36.0627 53.4533 36.5321 51.928L43.0441 54.04ZM80.9989 24.12C83.5215 24.12 85.8682 24.56 88.0389 25.44C90.2095 26.32 92.0869 27.552 93.6709 29.136C95.2549 30.72 96.4869 32.6267 97.3669 34.856C98.3055 37.0267 98.7749 39.432 98.7749 42.072C98.7749 45.7093 98.1589 49.2293 96.9269 52.632C95.7535 55.976 93.9935 58.968 91.6469 61.608C89.3589 64.1893 86.5135 66.272 83.1109 67.856C79.7669 69.44 75.9535 70.232 71.6709 70.232C69.2069 70.232 66.8895 69.8213 64.7189 69C62.5482 68.12 60.6415 66.9173 58.9989 65.392C57.4149 63.8667 56.1535 62.0187 55.2149 59.848C54.2762 57.6187 53.8069 55.1547 53.8069 52.456C53.8069 48.232 54.5109 44.3893 55.9189 40.928C57.3855 37.408 59.3509 34.416 61.8149 31.952C64.3375 29.488 67.2415 27.5813 70.5269 26.232C73.8122 24.824 77.3029 24.12 80.9989 24.12ZM73.1669 63.72C75.8655 63.72 78.3589 63.1333 80.6469 61.96C82.9349 60.728 84.9002 59.144 86.5429 57.208C88.1855 55.2133 89.4469 52.9547 90.3269 50.432C91.2655 47.9093 91.7349 45.2987 91.7349 42.6C91.7349 39.1387 90.6495 36.2933 88.4789 34.064C86.3669 31.776 83.3749 30.632 79.5029 30.632C76.9802 30.632 74.6042 31.1893 72.3749 32.304C70.1455 33.4187 68.1802 34.944 66.4789 36.88C64.8362 38.816 63.5162 41.0747 62.5189 43.656C61.5215 46.1787 61.0229 48.8773 61.0229 51.752C61.0229 55.272 62.0789 58.1467 64.1909 60.376C66.3029 62.6053 69.2949 63.72 73.1669 63.72ZM128.874 32.904H115.338V21.384H131.37L133.482 11.592C133.738 10.248 134.25 8.968 135.018 7.752C135.786 6.536 136.682 5.512 137.706 4.68C138.794 3.784 139.978 3.08 141.258 2.568C142.602 2.056 143.946 1.8 145.29 1.8H162.186V13.32H147.786C146.058 13.32 145.002 14.28 144.618 16.2L143.466 21.384H159.69V32.904H140.97L130.314 80.52C129.61 83.656 128.298 85.896 126.378 87.24C124.458 88.648 122.378 89.352 120.138 89.352C118.282 89.352 116.458 88.904 114.666 88.008C112.938 87.176 111.594 85.96 110.634 84.36L104.586 74.664L113.898 69L118.122 76.296L119.274 76.104L128.874 32.904ZM218.279 39.24C218.279 43.72 217.639 47.88 216.359 51.72C215.079 55.496 213.191 58.76 210.695 61.512C208.199 64.264 205.063 66.44 201.287 68.04C197.575 69.576 193.255 70.344 188.327 70.344C185.511 70.344 182.855 69.928 180.359 69.096C177.927 68.264 175.783 67.048 173.927 65.448C172.071 63.784 170.599 61.768 169.511 59.4C168.423 57.032 167.879 54.344 167.879 51.336C167.879 46.408 168.647 42.024 170.183 38.184C171.719 34.28 173.799 30.984 176.423 28.296C179.111 25.608 182.247 23.56 185.831 22.152C189.479 20.744 193.383 20.04 197.543 20.04C200.551 20.04 203.335 20.52 205.895 21.48C208.455 22.376 210.631 23.656 212.423 25.32C214.279 26.984 215.719 29 216.743 31.368C217.767 33.736 218.279 36.36 218.279 39.24ZM190.151 59.016C192.455 58.952 194.567 58.44 196.487 57.48C198.471 56.52 200.135 55.272 201.479 53.736C202.887 52.136 203.975 50.28 204.743 48.168C205.511 46.056 205.895 43.816 205.895 41.448C205.895 38.12 204.999 35.624 203.207 33.96C201.415 32.232 199.015 31.368 196.007 31.368C193.703 31.368 191.591 31.88 189.671 32.904C187.751 33.864 186.087 35.176 184.679 36.84C183.271 38.44 182.183 40.296 181.415 42.408C180.647 44.52 180.263 46.728 180.263 49.032C180.263 52.296 181.159 54.792 182.951 56.52C184.743 58.184 187.143 59.016 190.151 59.016ZM259.876 41.352C260.132 40.136 260.26 39.112 260.26 38.28C260.26 35.976 259.588 34.184 258.244 32.904C256.9 31.624 255.076 30.984 252.772 30.984C249.892 30.984 247.428 32.008 245.38 34.056C243.332 36.104 241.956 38.856 241.252 42.312L235.588 69H223.492L233.572 21.384H245.188L243.556 29.064H245.284C246.82 25.864 248.836 23.56 251.332 22.152C253.892 20.744 256.708 20.04 259.78 20.04C263.812 20.04 267.012 21.256 269.38 23.688C271.812 26.12 273.028 29.544 273.028 33.96C273.028 34.984 272.964 35.944 272.836 36.84C272.708 37.672 272.548 38.6 272.356 39.624L268.516 57.576L269.476 58.248L273.604 55.368L279.652 64.392L274.468 67.848C272.036 69.512 269.444 70.344 266.692 70.344C265.284 70.344 263.94 70.088 262.66 69.576C261.38 69.128 260.26 68.488 259.3 67.656C258.34 66.76 257.572 65.704 256.996 64.488C256.42 63.208 256.132 61.768 256.132 60.168C256.132 59.336 256.228 58.376 256.42 57.288L259.876 41.352ZM328.257 57.576L329.217 58.248L334.401 54.6L340.449 63.624L334.209 67.848C332.865 68.744 331.521 69.384 330.177 69.768C328.897 70.152 327.617 70.344 326.337 70.344C323.905 70.344 321.729 69.672 319.809 68.328C317.889 66.984 316.673 65.096 316.161 62.664H314.433C313.857 63.752 313.185 64.776 312.417 65.736C311.649 66.632 310.689 67.432 309.537 68.136C308.449 68.776 307.137 69.288 305.601 69.672C304.129 70.12 302.369 70.344 300.321 70.344C297.825 70.344 295.521 69.864 293.409 68.904C291.297 67.88 289.441 66.504 287.841 64.776C286.305 62.984 285.089 60.904 284.193 58.536C283.297 56.168 282.849 53.576 282.849 50.76C282.849 46.472 283.425 42.472 284.577 38.76C285.729 35.048 287.393 31.816 289.569 29.064C291.745 26.248 294.401 24.04 297.537 22.44C300.737 20.84 304.321 20.04 308.289 20.04C311.681 20.04 314.433 20.808 316.545 22.344C318.657 23.88 320.033 25.864 320.673 28.296H322.401L328.257 0.455996H340.449L334.497 28.296L328.257 57.576ZM305.025 58.824C307.329 58.824 309.377 58.376 311.169 57.48C312.961 56.52 314.433 55.272 315.585 53.736C316.801 52.2 317.729 50.408 318.369 48.36C319.009 46.248 319.329 44.04 319.329 41.736C319.329 38.728 318.465 36.296 316.737 34.44C315.009 32.52 312.705 31.56 309.825 31.56C307.521 31.56 305.473 32.04 303.681 33C301.889 33.896 300.385 35.112 299.169 36.648C297.953 38.184 297.025 40.008 296.385 42.12C295.745 44.168 295.425 46.344 295.425 48.648C295.425 51.336 296.193 53.704 297.729 55.752C299.329 57.8 301.761 58.824 305.025 58.824ZM358.143 32.712L357.183 32.136L349.599 37.704L343.167 29.064L350.847 23.304C352.319 22.216 353.855 21.416 355.455 20.904C357.119 20.328 358.687 20.04 360.159 20.04C362.719 20.04 364.959 20.744 366.879 22.152C368.799 23.56 369.951 25.544 370.335 28.104H372.063C373.343 25.416 375.135 23.4 377.439 22.056C379.743 20.712 382.335 20.04 385.215 20.04C388.863 20.04 391.807 21.192 394.047 23.496C396.351 25.736 397.503 28.872 397.503 32.904C397.503 33.736 397.439 34.568 397.311 35.4C397.247 36.168 397.087 37.128 396.831 38.28L396.351 40.392L383.487 41.352L383.775 40.008C383.967 39.048 384.063 38.184 384.063 37.416C384.063 35.56 383.551 34.088 382.527 33C381.503 31.912 379.967 31.368 377.919 31.368C375.359 31.368 373.311 32.232 371.775 33.96C370.303 35.688 369.215 38.152 368.511 41.352L365.055 57.48H376.575V69H343.743V57.48H352.959L358.143 32.712Z" fill="#292930"/>
</svg>
