<svg width="100%" height="100%" viewBox="0 0 1580 200" preserveAspectRatio="xMidYMid meet" xmlns="http://www.w3.org/2000/svg">
<path fill-rule="evenodd" clip-rule="evenodd" d="M65.9886 57.1429C96.8998 28.3283 140.212 0.0571433 191.205 0L198.306 7.14286C198.363 58.7574 170.343 102.4 141.728 133.514V192.857L134.642 200H92.1233L87.1201 197.914L72.9617 183.643L72.8338 183.628L16.1426 126.485L16.1282 126.357L2.08335 112.199L0 107.143V64.2857L7.0864 57.1429H65.9886ZM51.6313 71.4286H14.1728V104.199L20.0965 110.142C29.6506 96.4748 40.191 83.5356 51.6313 71.4286ZM89.0053 179.672L94.9579 185.714H127.484V148.015C115.454 159.514 102.593 170.096 89.0053 179.672ZM141.324 74.3792C142.427 79.9542 141.288 85.7433 138.157 90.4716H138.142C135.012 95.1979 130.146 98.4768 124.616 99.5875C119.086 100.698 113.345 99.549 108.655 96.3927C103.967 93.2363 100.713 88.3324 99.6116 82.7584C98.5097 77.1844 99.6497 71.3984 102.781 66.6711C105.913 61.9428 110.779 58.6618 116.31 57.5501C121.841 56.4384 127.584 57.5864 132.275 60.7428C136.966 63.8992 140.221 68.8041 141.324 74.3792Z" fill="#0E0F2D"/>
<path d="M42.5184 185.714V200H0V157.143H14.1728V185.714H42.5184Z" fill="#0E0F2D"/>
<path fill-rule="evenodd" clip-rule="evenodd" d="M385.611 9.9717C372.707 4.9043 357.623 2.37061 340.359 2.37061H271.303V196.068H340.359C357.623 196.068 372.707 193.359 385.611 187.942C398.515 182.525 409.24 175.274 417.785 166.187C426.329 157.101 432.694 146.966 436.879 135.783C441.239 124.6 443.419 113.242 443.419 101.709V95.9428C443.419 83.8859 441.239 72.2658 436.879 61.0826C432.694 49.7246 426.329 39.6772 417.785 30.9403C409.24 22.0286 398.515 15.0391 385.611 9.9717ZM369.132 41.1624C361.459 38.3666 352.653 36.9687 342.713 36.9687H308.447V161.47H342.713C352.653 161.47 361.459 159.984 369.132 157.014C376.979 153.868 383.606 149.5 389.011 143.908C394.417 138.317 398.515 131.764 401.305 124.25C404.27 116.562 405.752 108.087 405.752 98.826C405.752 89.2154 404.27 80.6532 401.305 73.1395C398.515 65.451 394.417 58.8983 389.011 53.4815C383.606 48.0646 376.979 43.9582 369.132 41.1624Z" fill="#0E0F2D"/>
<path fill-rule="evenodd" clip-rule="evenodd" d="M537.364 199.999C525.158 199.999 514.433 197.902 505.191 193.709C496.123 189.515 488.537 183.923 482.434 176.934C476.505 169.77 471.971 161.819 468.832 153.082C465.868 144.345 464.385 135.434 464.385 126.347V121.367C464.385 111.931 465.868 102.845 468.832 94.108C471.971 85.1964 476.505 77.3332 482.434 70.5184C488.537 63.5289 496.036 58.0246 504.929 54.0057C513.823 49.812 524.111 47.7151 535.795 47.7151C551.141 47.7151 563.958 51.1225 574.246 57.9373C584.709 64.5773 592.556 73.4016 597.788 84.4101C603.019 95.2438 605.635 106.951 605.635 119.532V132.638H498.862C499.484 138.129 500.722 143.197 502.575 147.84C505.365 154.655 509.638 160.072 515.392 164.091C521.147 167.935 528.471 169.857 537.364 169.857C546.258 169.857 553.495 168.11 559.075 164.615C564.655 160.945 568.23 156.49 569.799 151.247H603.281C601.188 161.033 597.178 169.595 591.249 176.934C585.32 184.273 577.734 189.952 568.492 193.971C559.424 197.99 549.048 199.999 537.364 199.999ZM502.575 99.3502C501.21 102.685 500.179 106.354 499.481 110.359H570.903C570.262 105.827 569.196 101.721 567.707 98.0396C565.091 91.5743 561.08 86.5943 555.675 83.0995C550.443 79.6048 543.817 77.8574 535.795 77.8574C527.773 77.8574 520.972 79.6922 515.392 83.3617C509.812 87.0312 505.54 92.3607 502.575 99.3502Z" fill="#0E0F2D"/>
<path d="M618.775 52.6951L663.242 195.019H721.573L760.025 52.6951H724.974L696.042 165.139H689.865L656.18 52.6951H618.775Z" fill="#0E0F2D"/>
<path d="M1007.15 183.224C1016.22 194.058 1028.95 199.475 1045.34 199.475H1046.91C1057.9 199.475 1067.05 197.029 1074.37 192.136C1081.7 187.243 1087.19 179.992 1090.85 170.381C1091.87 167.726 1092.74 164.891 1093.47 161.876V195.019H1122.24V52.433H1085.88V136.569C1085.88 145.83 1083.18 153.169 1077.77 158.586C1072.54 164.003 1065.74 166.712 1057.37 166.712C1049 166.712 1042.38 164.178 1037.49 159.111C1032.61 153.868 1030.17 146.879 1030.17 138.142V52.433H993.81V134.997C993.81 156.315 998.257 172.391 1007.15 183.224Z" fill="#0E0F2D"/>
<path d="M1208.48 89.3901C1203.07 94.807 1200.37 102.146 1200.37 111.407V195.019H1164.01V52.6951H1192.78V87.7674C1193.62 84.117 1194.67 80.7263 1195.92 77.5953C1199.76 67.81 1205.42 60.471 1212.92 55.5783C1220.6 50.6857 1230.1 48.2393 1241.43 48.2393H1243C1259.92 48.2393 1272.74 53.7436 1281.45 64.7521C1290.17 75.5858 1294.53 91.8364 1294.53 113.504V195.019H1258.17V110.359C1258.17 101.622 1255.65 94.5449 1250.59 89.128C1245.71 83.7111 1238.91 81.0027 1230.19 81.0027C1221.29 81.0027 1214.06 83.7985 1208.48 89.3901Z" fill="#0E0F2D"/>
<path d="M1362.92 191.874C1371.46 195.194 1382.28 196.854 1395.35 196.854H1415.76V165.663H1393.52C1386.55 165.663 1381.14 163.828 1377.3 160.159C1373.64 156.315 1371.81 150.898 1371.81 143.908L1371.94 79.4301H1415.76V52.6951H1371.99L1372.07 12.5928H1338.07L1337.99 52.6951H1315.31V79.4301H1337.93L1337.81 141.549C1337.81 155.354 1339.9 166.362 1344.09 174.575C1348.27 182.613 1354.55 188.379 1362.92 191.874Z" fill="#0E0F2D"/>
<path d="M915.657 195.019V115.601H827.506V195.019H790.363V3.68114H827.506V82.8374H915.657V3.68114H952.8V195.019H915.657Z" fill="#0E0F2D"/>
<rect x="1463.03" y="166.904" width="115.112" height="29.9065" fill="#FF7516"/>
</svg>
