<svg width="100%" height="100%" viewBox="0 0 1580 200" preserveAspectRatio="xMidYMid meet" xmlns="http://www.w3.org/2000/svg">
<path d="M41.7655 1.12101C39.4969 -0.188772 36.7019 -0.188773 34.4333 1.121L3.66612 18.8844C1.39752 20.1942 0 22.6148 0 25.2343V60.7612C0 63.3808 1.39752 65.8013 3.66612 67.1111L34.4333 84.8746C35.2938 85.3713 36.2299 85.6797 37.1844 85.7996C37.6867 85.8627 38.0987 85.4465 38.0987 84.9403L38.0986 58.1631C38.0986 57.6569 37.6883 57.2465 37.1821 57.2465H27.1003C26.5941 57.2465 26.1837 57.6569 26.1837 58.1631V65.4477L14.5321 58.7206C13.3978 58.0657 12.699 56.8554 12.699 55.5456V30.4499C12.699 29.1402 13.3978 27.9299 14.5321 27.275L36.2656 14.7272C37.3999 14.0723 38.7974 14.0723 39.9317 14.7272L53.8271 22.7497C54.2655 23.0028 54.826 22.8526 55.0791 22.4142L60.5127 13.003C60.7658 12.5646 60.6156 12.0041 60.1772 11.751L41.7655 1.12101Z" fill="#2CA24C"/>
<path d="M76.1668 61.4506C75.9453 63.8 74.6012 65.9171 72.5331 67.1111L65.6267 71.0985C65.0157 71.4513 64.2519 71.0103 64.2519 70.3048V33.1451H58.7002C58.3474 33.1451 58.1269 32.7632 58.3033 32.4577L69.4156 13.2106C69.7684 12.5996 70.6503 12.5996 71.0031 13.2106L82.1154 32.4577C82.2918 32.7632 82.0713 33.1451 81.7186 33.1451H76.1668V61.4506Z" fill="#2CA24C"/>
<path d="M56.9197 75.5964C56.9197 75.9238 56.745 76.2264 56.4614 76.3901L46.3796 82.2108C45.7686 82.5636 45.0048 82.1227 45.0048 81.4171V44.6639C45.0048 44.1577 45.4152 43.7474 45.9213 43.7474H56.0032C56.5093 43.7474 56.9197 44.1577 56.9197 44.6639V75.5964Z" fill="#2CA24C"/>
<path d="M34.4333 1.121C36.7019 -0.188773 39.4969 -0.188772 41.7655 1.12101L60.1772 11.751C60.6155 12.0041 60.7657 12.5646 60.5127 13.003L55.0791 22.4142C54.826 22.8526 54.2655 23.0028 53.8271 22.7497L39.9317 14.7272C38.7974 14.0723 37.3999 14.0723 36.2656 14.7272L14.5321 27.275C13.3978 27.9299 12.699 29.1402 12.699 30.4499V55.5456C12.699 56.2001 12.8735 56.8297 13.1896 57.3777L0.874794 64.2344C0.309924 63.1843 0 61.9948 0 60.7612V25.2343C0 22.6148 1.39752 20.1942 3.66612 18.8844L34.4333 1.121Z" fill="#F1B500"/>
<path d="M34.4337 1.121C36.7023 -0.188773 39.4973 -0.188772 41.7659 1.12101L60.1776 11.751C60.616 12.0041 60.7662 12.5646 60.5131 13.003L55.0795 22.4142C54.8264 22.8526 54.2659 23.0028 53.8275 22.7497L39.9321 14.7272C38.7978 14.0723 37.4003 14.0723 36.266 14.7272L14.5325 27.275C13.9829 27.5923 13.5356 28.04 13.2204 28.5662L1.04688 21.4593C1.67694 20.4102 2.56998 19.5175 3.66654 18.8844L34.4337 1.121Z" fill="#E33E2B"/>
<path d="M105.336 65.0001C104.867 65.0001 104.483 64.8507 104.184 64.5521C103.886 64.2534 103.736 63.8694 103.736 63.4001V21.8001C103.736 21.3307 103.886 20.9467 104.184 20.6481C104.483 20.3494 104.867 20.2001 105.336 20.2001H112.568C113.038 20.2001 113.422 20.3494 113.72 20.6481C114.019 20.9467 114.168 21.3307 114.168 21.8001V63.4001C114.168 63.8694 114.019 64.2534 113.72 64.5521C113.422 64.8507 113.038 65.0001 112.568 65.0001H105.336Z" fill="#373737"/>
<path d="M124.443 65.0001C124.017 65.0001 123.654 64.8507 123.355 64.5521C123.057 64.2534 122.907 63.8694 122.907 63.4001V33.3201C122.907 32.8507 123.057 32.4667 123.355 32.1681C123.654 31.8694 124.017 31.7201 124.443 31.7201H130.715C131.185 31.7201 131.569 31.8694 131.867 32.1681C132.166 32.4667 132.315 32.8507 132.315 33.3201V35.8161C133.425 34.4507 134.854 33.3201 136.603 32.4241C138.353 31.5281 140.486 31.0801 143.003 31.0801C145.521 31.0801 147.718 31.6561 149.595 32.8081C151.515 33.9174 153.009 35.5601 154.075 37.7361C155.185 39.8694 155.739 42.4721 155.739 45.5441V63.4001C155.739 63.8694 155.569 64.2534 155.227 64.5521C154.929 64.8507 154.566 65.0001 154.139 65.0001H147.355C146.886 65.0001 146.502 64.8507 146.203 64.5521C145.905 64.2534 145.755 63.8694 145.755 63.4001V45.9281C145.755 43.6667 145.201 41.9174 144.091 40.6801C143.025 39.4001 141.446 38.7601 139.355 38.7601C137.35 38.7601 135.75 39.4001 134.555 40.6801C133.361 41.9174 132.763 43.6667 132.763 45.9281V63.4001C132.763 63.8694 132.614 64.2534 132.315 64.5521C132.017 64.8507 131.654 65.0001 131.227 65.0001H124.443Z" fill="#373737"/>
<path d="M175.759 65.6401C173.626 65.6401 171.727 65.2987 170.063 64.6161C168.399 63.8907 166.991 62.8667 165.839 61.5441C164.687 60.1787 163.813 58.5787 163.215 56.7441C162.618 54.8667 162.255 52.7974 162.127 50.5361C162.085 49.7254 162.063 49.0001 162.063 48.3601C162.063 47.6774 162.085 46.9521 162.127 46.1841C162.213 43.9654 162.554 41.9387 163.151 40.1041C163.791 38.2694 164.666 36.6907 165.775 35.3681C166.927 34.0027 168.335 32.9574 169.999 32.2321C171.706 31.4641 173.626 31.0801 175.759 31.0801C177.978 31.0801 179.877 31.4641 181.455 32.2321C183.034 32.9574 184.335 33.9174 185.359 35.1121V21.1601C185.359 20.6907 185.509 20.3067 185.807 20.0081C186.106 19.7094 186.49 19.5601 186.959 19.5601H193.551C193.978 19.5601 194.341 19.7094 194.639 20.0081C194.938 20.3067 195.087 20.6907 195.087 21.1601V63.4001C195.087 63.8694 194.938 64.2534 194.639 64.5521C194.341 64.8507 193.978 65.0001 193.551 65.0001H187.407C186.981 65.0001 186.618 64.8507 186.319 64.5521C186.021 64.2534 185.871 63.8694 185.871 63.4001V61.2241C184.805 62.5041 183.461 63.5707 181.839 64.4241C180.218 65.2347 178.191 65.6401 175.759 65.6401ZM178.703 57.9601C180.282 57.9601 181.541 57.5974 182.479 56.8721C183.461 56.1467 184.165 55.2294 184.591 54.1201C185.061 53.0107 185.317 51.8161 185.359 50.5361C185.445 49.7254 185.487 48.9147 185.487 48.1041C185.487 47.2934 185.445 46.5041 185.359 45.7361C185.317 44.5414 185.061 43.4321 184.591 42.4081C184.122 41.3414 183.397 40.4667 182.415 39.7841C181.477 39.1014 180.239 38.7601 178.703 38.7601C177.082 38.7601 175.802 39.1227 174.863 39.8481C173.925 40.5307 173.242 41.4481 172.815 42.6001C172.431 43.7521 172.197 45.0107 172.111 46.3761C171.983 47.6987 171.983 49.0214 172.111 50.3441C172.197 51.7094 172.431 52.9681 172.815 54.1201C173.242 55.2721 173.925 56.2107 174.863 56.9361C175.802 57.6187 177.082 57.9601 178.703 57.9601Z" fill="#373737"/>
<path d="M218.068 65.6401C213.161 65.6401 209.257 64.2747 206.356 61.5441C203.497 58.8134 201.982 54.8454 201.812 49.6401C201.812 49.2987 201.812 48.8507 201.812 48.2961C201.812 47.6987 201.812 47.2294 201.812 46.8881C201.982 43.6027 202.729 40.7867 204.052 38.4401C205.374 36.0507 207.23 34.2374 209.62 33.0001C212.009 31.7201 214.804 31.0801 218.004 31.0801C221.588 31.0801 224.574 31.8267 226.964 33.3201C229.396 34.7707 231.209 36.7761 232.404 39.3361C233.641 41.8534 234.26 44.7547 234.26 48.0401V49.5121C234.26 49.9387 234.089 50.3014 233.748 50.6001C233.449 50.8987 233.086 51.0481 232.66 51.0481H211.732C211.732 51.0907 211.732 51.1761 211.732 51.3041C211.732 51.3894 211.732 51.4747 211.732 51.5601C211.774 52.9254 212.031 54.1841 212.5 55.3361C213.012 56.4454 213.716 57.3414 214.612 58.0241C215.55 58.7067 216.66 59.0481 217.94 59.0481C219.006 59.0481 219.881 58.8987 220.564 58.6001C221.246 58.3014 221.801 57.9387 222.228 57.5121C222.697 57.0854 223.038 56.7227 223.252 56.4241C223.636 55.9974 223.934 55.7414 224.148 55.6561C224.404 55.5281 224.788 55.4641 225.3 55.4641H231.956C232.382 55.4641 232.724 55.5921 232.98 55.8481C233.279 56.0614 233.406 56.3814 233.364 56.8081C233.321 57.4907 232.958 58.3441 232.276 59.3681C231.636 60.3494 230.676 61.3307 229.396 62.3121C228.116 63.2507 226.516 64.0401 224.596 64.6801C222.718 65.3201 220.542 65.6401 218.068 65.6401ZM211.732 45.2241H224.276V45.0961C224.276 43.5601 224.02 42.2374 223.508 41.1281C223.038 39.9761 222.334 39.0801 221.396 38.4401C220.457 37.8001 219.326 37.4801 218.004 37.4801C216.681 37.4801 215.55 37.8001 214.612 38.4401C213.673 39.0801 212.948 39.9761 212.436 41.1281C211.966 42.2374 211.732 43.5601 211.732 45.0961V45.2241Z" fill="#373737"/>
<path d="M238.249 65.0001C237.865 65.0001 237.524 64.8721 237.225 64.6161C236.969 64.3174 236.841 63.9761 236.841 63.5921C236.841 63.4641 236.863 63.3147 236.905 63.1441C236.991 62.9307 237.097 62.7387 237.225 62.5681L248.041 47.9121L238.121 34.1521C237.993 33.9814 237.887 33.8107 237.801 33.6401C237.759 33.4694 237.737 33.2987 237.737 33.1281C237.737 32.7441 237.865 32.4241 238.121 32.1681C238.42 31.8694 238.761 31.7201 239.145 31.7201H245.801C246.313 31.7201 246.697 31.8481 246.953 32.1041C247.252 32.3601 247.465 32.5947 247.593 32.8081L254.185 41.7681L260.777 32.8721C260.948 32.6587 261.161 32.4241 261.417 32.1681C261.673 31.8694 262.079 31.7201 262.633 31.7201H268.969C269.353 31.7201 269.673 31.8694 269.929 32.1681C270.228 32.4241 270.377 32.7441 270.377 33.1281C270.377 33.2987 270.356 33.4694 270.313 33.6401C270.271 33.8107 270.164 33.9814 269.993 34.1521L259.881 47.9761L270.825 62.5681C270.953 62.7387 271.039 62.9094 271.081 63.0801C271.167 63.2507 271.209 63.4214 271.209 63.5921C271.209 63.9761 271.06 64.3174 270.761 64.6161C270.505 64.8721 270.185 65.0001 269.801 65.0001H262.825C262.356 65.0001 261.993 64.8934 261.737 64.6801C261.481 64.4241 261.268 64.1894 261.097 63.9761L253.993 54.5041L246.761 63.9761C246.633 64.1467 246.441 64.3601 246.185 64.6161C245.929 64.8721 245.545 65.0001 245.033 65.0001H238.249Z" fill="#373737"/>
<path d="M278.774 65.0001C278.305 65.0001 277.92 64.8507 277.622 64.5521C277.323 64.2534 277.174 63.8694 277.174 63.4001V21.8001C277.174 21.3307 277.323 20.9467 277.622 20.6481C277.92 20.3494 278.305 20.2001 278.774 20.2001H295.734C301.067 20.2001 305.27 21.4374 308.342 23.9121C311.414 26.3441 312.95 29.8641 312.95 34.4721C312.95 37.5867 312.203 40.1894 310.71 42.2801C309.217 44.3707 307.211 45.9281 304.694 46.9521L313.718 62.9521C313.846 63.2081 313.91 63.4427 313.91 63.6561C313.91 63.9974 313.782 64.3174 313.526 64.6161C313.27 64.8721 312.95 65.0001 312.566 65.0001H305.462C304.694 65.0001 304.118 64.8081 303.734 64.4241C303.35 63.9974 303.072 63.6134 302.902 63.2721L295.094 48.6161H287.35V63.4001C287.35 63.8694 287.2 64.2534 286.902 64.5521C286.603 64.8507 286.219 65.0001 285.75 65.0001H278.774ZM287.35 40.4881H295.542C297.888 40.4881 299.617 39.9547 300.726 38.8881C301.878 37.8214 302.454 36.3281 302.454 34.4081C302.454 32.4881 301.899 30.9734 300.79 29.8641C299.68 28.7547 297.931 28.2001 295.542 28.2001H287.35V40.4881Z" fill="#373737"/>
<path d="M332.319 65.6401C329.844 65.6401 327.647 65.0854 325.727 63.9761C323.849 62.8241 322.377 61.1814 321.311 59.0481C320.287 56.8721 319.775 54.2481 319.775 51.1761V33.3201C319.775 32.8507 319.924 32.4667 320.223 32.1681C320.521 31.8694 320.884 31.7201 321.311 31.7201H328.095C328.564 31.7201 328.948 31.8694 329.247 32.1681C329.545 32.4667 329.695 32.8507 329.695 33.3201V50.7921C329.695 55.5707 331.785 57.9601 335.967 57.9601C337.972 57.9601 339.551 57.3414 340.703 56.1041C341.898 54.8241 342.495 53.0534 342.495 50.7921V33.3201C342.495 32.8507 342.644 32.4667 342.943 32.1681C343.241 31.8694 343.626 31.7201 344.095 31.7201H350.879C351.305 31.7201 351.668 31.8694 351.967 32.1681C352.265 32.4667 352.415 32.8507 352.415 33.3201V63.4001C352.415 63.8694 352.265 64.2534 351.967 64.5521C351.668 64.8507 351.305 65.0001 350.879 65.0001H344.607C344.137 65.0001 343.753 64.8507 343.455 64.5521C343.156 64.2534 343.007 63.8694 343.007 63.4001V60.9041C341.898 62.4401 340.468 63.6134 338.719 64.4241C336.969 65.2347 334.836 65.6401 332.319 65.6401Z" fill="#373737"/>
<path d="M373.59 65.6401C370.945 65.6401 368.662 65.3414 366.742 64.7441C364.865 64.1041 363.328 63.3361 362.134 62.4401C360.982 61.5441 360.107 60.6481 359.51 59.7521C358.955 58.8134 358.656 58.0241 358.614 57.3841C358.571 56.9147 358.72 56.5307 359.062 56.2321C359.403 55.9334 359.744 55.7841 360.086 55.7841H366.294C366.422 55.7841 366.55 55.8054 366.678 55.8481C366.806 55.8907 366.934 55.9974 367.062 56.1681C367.616 56.5521 368.193 57.0001 368.79 57.5121C369.387 57.9814 370.07 58.3867 370.838 58.7281C371.648 59.0694 372.651 59.2401 373.846 59.2401C375.254 59.2401 376.449 58.9627 377.43 58.4081C378.411 57.8107 378.902 56.9787 378.902 55.9121C378.902 55.1441 378.667 54.5041 378.198 53.9921C377.771 53.4801 376.939 53.0107 375.702 52.5841C374.465 52.1574 372.63 51.6881 370.198 51.1761C367.894 50.6641 365.931 49.9814 364.31 49.1281C362.688 48.2747 361.473 47.2081 360.662 45.9281C359.851 44.6054 359.446 43.0267 359.446 41.1921C359.446 39.5281 359.958 37.9281 360.982 36.3921C362.049 34.8561 363.606 33.5974 365.654 32.6161C367.702 31.5921 370.262 31.0801 373.334 31.0801C375.681 31.0801 377.729 31.3787 379.478 31.9761C381.27 32.5307 382.763 33.2561 383.958 34.1521C385.152 35.0054 386.049 35.9014 386.646 36.8401C387.286 37.7361 387.627 38.5254 387.67 39.2081C387.712 39.6347 387.585 39.9974 387.286 40.2961C386.987 40.5947 386.646 40.7441 386.262 40.7441H380.566C380.352 40.7441 380.16 40.7227 379.99 40.6801C379.819 40.5947 379.67 40.4881 379.542 40.3601C379.03 40.0187 378.496 39.6347 377.942 39.2081C377.43 38.7387 376.811 38.3334 376.086 37.9921C375.36 37.6507 374.422 37.4801 373.27 37.4801C371.862 37.4801 370.774 37.8001 370.006 38.4401C369.28 39.0374 368.918 39.8054 368.918 40.7441C368.918 41.3414 369.11 41.8961 369.494 42.4081C369.878 42.9201 370.667 43.3894 371.862 43.8161C373.056 44.2427 374.87 44.6907 377.302 45.1601C380.203 45.6721 382.507 46.4401 384.214 47.4641C385.921 48.4881 387.136 49.6827 387.862 51.0481C388.63 52.3707 389.014 53.8001 389.014 55.3361C389.014 57.3414 388.417 59.1334 387.222 60.7121C386.027 62.2481 384.278 63.4641 381.974 64.3601C379.712 65.2134 376.918 65.6401 373.59 65.6401Z" fill="#373737"/>
<path d="M396.757 65.0001C396.288 65.0001 395.904 64.8507 395.605 64.5521C395.307 64.2534 395.157 63.8694 395.157 63.4001V21.1601C395.157 20.6907 395.307 20.3067 395.605 20.0081C395.904 19.7094 396.288 19.5601 396.757 19.5601H403.669C404.096 19.5601 404.459 19.7094 404.757 20.0081C405.056 20.3067 405.205 20.6907 405.205 21.1601V35.5601C406.357 34.1947 407.765 33.1067 409.429 32.2961C411.093 31.4854 413.099 31.0801 415.445 31.0801C417.963 31.0801 420.181 31.6561 422.101 32.8081C424.064 33.9174 425.6 35.5601 426.709 37.7361C427.819 39.8694 428.373 42.4721 428.373 45.5441V63.4001C428.373 63.8694 428.224 64.2534 427.925 64.5521C427.627 64.8507 427.243 65.0001 426.773 65.0001H419.797C419.371 65.0001 419.008 64.8507 418.709 64.5521C418.411 64.2534 418.261 63.8694 418.261 63.4001V45.9281C418.261 43.6667 417.707 41.9174 416.597 40.6801C415.488 39.4001 413.909 38.7601 411.861 38.7601C409.856 38.7601 408.235 39.4001 406.997 40.6801C405.803 41.9174 405.205 43.6667 405.205 45.9281V63.4001C405.205 63.8694 405.056 64.2534 404.757 64.5521C404.459 64.8507 404.096 65.0001 403.669 65.0001H396.757Z" fill="#373737"/>
<path d="M450.88 65.6401C445.974 65.6401 442.07 64.2747 439.168 61.5441C436.31 58.8134 434.795 54.8454 434.624 49.6401C434.624 49.2987 434.624 48.8507 434.624 48.2961C434.624 47.6987 434.624 47.2294 434.624 46.8881C434.795 43.6027 435.542 40.7867 436.864 38.4401C438.187 36.0507 440.043 34.2374 442.432 33.0001C444.822 31.7201 447.616 31.0801 450.816 31.0801C454.4 31.0801 457.387 31.8267 459.776 33.3201C462.208 34.7707 464.022 36.7761 465.216 39.3361C466.454 41.8534 467.072 44.7547 467.072 48.0401V49.5121C467.072 49.9387 466.902 50.3014 466.56 50.6001C466.262 50.8987 465.899 51.0481 465.472 51.0481H444.544C444.544 51.0907 444.544 51.1761 444.544 51.3041C444.544 51.3894 444.544 51.4747 444.544 51.5601C444.587 52.9254 444.843 54.1841 445.312 55.3361C445.824 56.4454 446.528 57.3414 447.424 58.0241C448.363 58.7067 449.472 59.0481 450.752 59.0481C451.819 59.0481 452.694 58.8987 453.376 58.6001C454.059 58.3014 454.614 57.9387 455.04 57.5121C455.51 57.0854 455.851 56.7227 456.064 56.4241C456.448 55.9974 456.747 55.7414 456.96 55.6561C457.216 55.5281 457.6 55.4641 458.112 55.4641H464.768C465.195 55.4641 465.536 55.5921 465.792 55.8481C466.091 56.0614 466.219 56.3814 466.176 56.8081C466.134 57.4907 465.771 58.3441 465.088 59.3681C464.448 60.3494 463.488 61.3307 462.208 62.3121C460.928 63.2507 459.328 64.0401 457.408 64.6801C455.531 65.3201 453.355 65.6401 450.88 65.6401ZM444.544 45.2241H457.088V45.0961C457.088 43.5601 456.832 42.2374 456.32 41.1281C455.851 39.9761 455.147 39.0801 454.208 38.4401C453.27 37.8001 452.139 37.4801 450.816 37.4801C449.494 37.4801 448.363 37.8001 447.424 38.4401C446.486 39.0801 445.76 39.9761 445.248 41.1281C444.779 42.2374 444.544 43.5601 444.544 45.0961V45.2241Z" fill="#373737"/>
<path d="M475.006 65.0001C474.579 65.0001 474.216 64.8507 473.918 64.5521C473.619 64.2534 473.47 63.8694 473.47 63.4001V33.3201C473.47 32.8934 473.619 32.5307 473.918 32.2321C474.216 31.8907 474.579 31.7201 475.006 31.7201H481.278C481.704 31.7201 482.067 31.8907 482.366 32.2321C482.707 32.5307 482.878 32.8934 482.878 33.3201V35.8801C483.945 34.5574 485.246 33.5334 486.782 32.8081C488.361 32.0827 490.174 31.7201 492.222 31.7201H494.974C495.4 31.7201 495.763 31.8694 496.062 32.1681C496.361 32.4667 496.51 32.8507 496.51 33.3201V38.8241C496.51 39.2934 496.361 39.6774 496.062 39.9761C495.763 40.2747 495.4 40.4241 494.974 40.4241H489.342C487.465 40.4241 485.993 40.9574 484.926 42.0241C483.859 43.0481 483.326 44.5201 483.326 46.4401V63.4001C483.326 63.8694 483.177 64.2534 482.878 64.5521C482.579 64.8507 482.195 65.0001 481.726 65.0001H475.006Z" fill="#373737"/>
</svg>
