<svg width="100%" height="100%" viewBox="0 0 1580 200" preserveAspectRatio="xMidYMid meet" xmlns="http://www.w3.org/2000/svg">
<path d="M0 63.624V3.256H13.112V52.448H43.56V63.624H0Z" fill="#252532"/>
<path d="M56.2162 10.56C53.3001 10.56 50.9362 8.19606 50.9362 5.28V5.28C50.9362 2.36394 53.3001 0 56.2162 0H57.8882C60.8042 0 63.1682 2.36394 63.1682 5.28V5.28C63.1682 8.19606 60.8042 10.56 57.8882 10.56H56.2162ZM50.9362 63.624V17.336H63.1682V63.624H50.9362Z" fill="#252532"/>
<path d="M93.1411 64.68C89.9145 64.68 87.0105 64.328 84.4291 63.624C81.8478 62.92 79.6478 61.952 77.8291 60.72C76.0105 59.4293 74.6025 57.904 73.6051 56.144C72.6665 54.384 72.1971 52.3893 72.1971 50.16C72.1971 49.9253 72.1971 49.6907 72.1971 49.456C72.1971 49.2213 72.2265 49.0453 72.2851 48.928H84.0771C84.0771 49.0453 84.0771 49.1627 84.0771 49.28C84.0771 49.3973 84.0771 49.5147 84.0771 49.632C84.1358 51.0987 84.6051 52.3013 85.4851 53.24C86.3651 54.12 87.5091 54.7653 88.9171 55.176C90.3838 55.5867 91.9091 55.792 93.4931 55.792C94.9011 55.792 96.2505 55.6747 97.5411 55.44C98.8905 55.1467 100.005 54.648 100.885 53.944C101.824 53.24 102.293 52.3307 102.293 51.216C102.293 49.808 101.706 48.7227 100.533 47.96C99.4185 47.1973 97.9225 46.5813 96.0451 46.112C94.2265 45.6427 92.2318 45.1147 90.0611 44.528C88.0665 44.0587 86.0718 43.5307 84.0771 42.944C82.0825 42.2987 80.2638 41.4773 78.6211 40.48C77.0371 39.4827 75.7465 38.192 74.7491 36.608C73.7518 34.9653 73.2531 32.912 73.2531 30.448C73.2531 28.0427 73.7811 25.96 74.8371 24.2C75.8931 22.3813 77.3305 20.8853 79.1491 19.712C81.0265 18.5387 83.1971 17.688 85.6611 17.16C88.1838 16.5733 90.8825 16.28 93.7571 16.28C96.4558 16.28 98.9785 16.5733 101.325 17.16C103.672 17.688 105.725 18.5093 107.485 19.624C109.245 20.68 110.624 22.0293 111.621 23.672C112.618 25.256 113.117 27.0453 113.117 29.04C113.117 29.4507 113.117 29.832 113.117 30.184C113.117 30.536 113.088 30.7707 113.029 30.888H101.325V30.184C101.325 29.128 101.002 28.248 100.357 27.544C99.7118 26.7813 98.7731 26.1947 97.5411 25.784C96.3678 25.3733 94.9305 25.168 93.2291 25.168C92.0558 25.168 90.9705 25.256 89.9731 25.432C89.0345 25.608 88.2131 25.872 87.5091 26.224C86.8051 26.576 86.2478 27.016 85.8371 27.544C85.4851 28.0133 85.3091 28.6 85.3091 29.304C85.3091 30.3013 85.7198 31.1227 86.5411 31.768C87.4211 32.3547 88.5651 32.8533 89.9731 33.264C91.3811 33.6747 92.9358 34.1147 94.6371 34.584C96.7491 35.1707 98.9491 35.7573 101.237 36.344C103.584 36.872 105.754 37.6053 107.749 38.544C109.744 39.4827 111.357 40.832 112.589 42.592C113.821 44.2933 114.437 46.6107 114.437 49.544C114.437 52.36 113.88 54.736 112.765 56.672C111.709 58.608 110.213 60.1627 108.277 61.336C106.341 62.5093 104.082 63.36 101.501 63.888C98.9198 64.416 96.1331 64.68 93.1411 64.68Z" fill="#252532"/>
<path d="M137.112 64.68C134.178 64.68 131.802 64.152 129.984 63.096C128.165 62.04 126.845 60.632 126.024 58.872C125.202 57.0533 124.792 55.0587 124.792 52.888V26.752H119.072V17.336H125.232L127.52 4.136H137.024V17.336H145.472V26.752H137.024V50.864C137.024 52.272 137.346 53.3573 137.992 54.12C138.637 54.824 139.693 55.176 141.16 55.176H145.472V63.272C144.768 63.5067 143.946 63.712 143.008 63.888C142.069 64.1227 141.072 64.2987 140.016 64.416C138.96 64.592 137.992 64.68 137.112 64.68Z" fill="#252532"/>
<path d="M158.654 10.56C155.738 10.56 153.374 8.19606 153.374 5.28V5.28C153.374 2.36394 155.738 0 158.654 0H160.326C163.242 0 165.606 2.36394 165.606 5.28V5.28C165.606 8.19606 163.242 10.56 160.326 10.56H158.654ZM153.374 63.624V17.336H165.606V63.624H153.374Z" fill="#252532"/>
<path d="M176.835 63.624V17.336H186.955L187.923 23.672H188.539C189.595 22.1467 190.856 20.8267 192.323 19.712C193.848 18.5973 195.549 17.7467 197.427 17.16C199.304 16.5733 201.357 16.28 203.587 16.28C206.637 16.28 209.307 16.8373 211.595 17.952C213.883 19.0667 215.643 20.8267 216.875 23.232C218.165 25.6373 218.811 28.776 218.811 32.648V63.624H206.579V34.584C206.579 33.1173 206.403 31.8853 206.051 30.888C205.699 29.832 205.171 28.9813 204.467 28.336C203.821 27.632 203 27.1333 202.003 26.84C201.005 26.5467 199.891 26.4 198.659 26.4C196.84 26.4 195.197 26.84 193.731 27.72C192.264 28.6 191.12 29.8027 190.299 31.328C189.477 32.8533 189.067 34.6133 189.067 36.608V63.624H176.835Z" fill="#252532"/>
<path d="M237.34 80.168C235.287 80.168 233.351 79.728 231.532 78.848C229.713 78.0267 228.247 76.7947 227.132 75.152C226.017 73.5093 225.46 71.544 225.46 69.256C225.46 66.6747 226.193 64.6213 227.66 63.096C229.185 61.512 230.887 60.3387 232.764 59.576C231.415 58.8133 230.3 57.816 229.42 56.584C228.599 55.352 228.188 53.9147 228.188 52.272C228.188 49.984 229.009 48.136 230.652 46.728C232.353 45.2613 234.289 44.3227 236.46 43.912C234.289 42.5627 232.588 40.8613 231.356 38.808C230.183 36.696 229.596 34.3493 229.596 31.768C229.596 28.424 230.417 25.608 232.06 23.32C233.761 21.032 236.167 19.3013 239.276 18.128C242.444 16.896 246.169 16.28 250.452 16.28C252.153 16.28 253.738 16.368 255.204 16.544C256.73 16.72 258.108 17.0133 259.34 17.424C261.511 16.1333 262.978 14.7253 263.74 13.2C264.562 11.616 265.002 10.3547 265.06 9.416H276.412C276.412 11.5867 276.002 13.464 275.18 15.048C274.418 16.632 273.303 17.952 271.836 19.008C270.37 20.0053 268.61 20.7387 266.556 21.208C268.082 22.4987 269.255 24.0533 270.076 25.872C270.898 27.6907 271.308 29.656 271.308 31.768C271.308 35.0533 270.516 37.8693 268.932 40.216C267.348 42.504 265.09 44.264 262.156 45.496C259.282 46.728 255.82 47.344 251.772 47.344H244.732C243.324 47.344 242.268 47.608 241.564 48.136C240.86 48.6053 240.508 49.3093 240.508 50.248C240.508 51.0107 240.801 51.6853 241.388 52.272C242.033 52.8 243.06 53.064 244.468 53.064H263.74C267.612 53.064 270.692 54.2667 272.98 56.672C275.327 59.0187 276.5 62.04 276.5 65.736C276.5 68.552 275.767 71.0453 274.3 73.216C272.834 75.3867 270.81 77.088 268.228 78.32C265.647 79.552 262.684 80.168 259.34 80.168H237.34ZM242.444 71.984H258.724C259.78 71.984 260.719 71.7787 261.54 71.368C262.362 71.016 263.007 70.488 263.476 69.784C263.946 69.1387 264.18 68.376 264.18 67.496C264.18 65.9707 263.711 64.8267 262.772 64.064C261.834 63.3013 260.66 62.92 259.252 62.92H242.444C241.036 62.92 239.863 63.3307 238.924 64.152C238.044 64.9733 237.604 66.0587 237.604 67.408C237.604 68.7573 238.044 69.8427 238.924 70.664C239.863 71.544 241.036 71.984 242.444 71.984ZM250.452 39.424C253.327 39.424 255.498 38.7787 256.964 37.488C258.49 36.1387 259.252 34.232 259.252 31.768C259.252 29.304 258.49 27.4267 256.964 26.136C255.498 24.7867 253.327 24.112 250.452 24.112C247.636 24.112 245.465 24.7867 243.94 26.136C242.473 27.4267 241.74 29.304 241.74 31.768C241.74 33.352 242.063 34.7307 242.708 35.904C243.353 37.0773 244.321 37.9573 245.612 38.544C246.903 39.1307 248.516 39.424 250.452 39.424Z" fill="#252532"/>
<path d="M0 136.568V76.2H74.496C77.664 76.2 80.5093 76.816 83.032 78.048C85.6133 79.28 87.6373 81.0107 89.104 83.24C90.5707 85.4694 91.304 88.08 91.304 91.072C91.304 93.4774 90.864 95.6187 89.984 97.496C89.104 99.3734 87.9013 100.928 86.376 102.16C84.9093 103.392 83.2373 104.301 81.36 104.888V105.24C83.5893 105.709 85.5547 106.589 87.256 107.88C89.016 109.171 90.3947 110.843 91.392 112.896C92.448 114.891 92.976 117.267 92.976 120.024C92.976 123.661 92.1253 126.712 90.424 129.176C88.7813 131.64 86.5813 133.488 83.824 134.72C81.0667 135.952 77.9867 136.568 74.584 136.568H0ZM13.112 125.832H72.032C74.2027 125.832 75.9627 125.216 77.312 123.984C78.72 122.752 79.424 120.845 79.424 118.264C79.424 116.739 79.1307 115.419 78.544 114.304C77.9573 113.189 77.0773 112.339 75.904 111.752C74.7307 111.107 73.2347 110.784 71.416 110.784H13.112V125.832ZM13.112 100.576H70.536C72.12 100.576 73.44 100.283 74.496 99.696C75.6107 99.0507 76.432 98.2294 76.96 97.232C77.5467 96.176 77.84 94.9733 77.84 93.624C77.84 91.336 77.1947 89.6054 75.904 88.432C74.672 87.2587 73.0293 86.672 70.976 86.672H13.112V100.576Z" fill="#252532"/>
<path d="M123.748 137.624C118.702 137.624 114.42 136.773 110.9 135.072C107.38 133.312 104.71 130.643 102.892 127.064C101.073 123.427 100.164 118.88 100.164 113.424C100.164 107.851 101.073 103.304 102.892 99.784C104.71 96.2054 107.38 93.5653 110.9 91.864C114.42 90.104 118.702 89.224 123.748 89.224C128.91 89.224 133.222 90.104 136.684 91.864C140.204 93.5653 142.873 96.2054 144.692 99.784C146.51 103.304 147.42 107.851 147.42 113.424C147.42 118.88 146.51 123.427 144.692 127.064C142.873 130.643 140.204 133.312 136.684 135.072C133.222 136.773 128.91 137.624 123.748 137.624ZM123.748 128.12C126.446 128.12 128.588 127.621 130.172 126.624C131.814 125.627 133.017 124.101 133.78 122.048C134.542 119.995 134.924 117.472 134.924 114.48V112.368C134.924 109.376 134.542 106.853 133.78 104.8C133.017 102.747 131.814 101.221 130.172 100.224C128.588 99.168 126.446 98.64 123.748 98.64C121.108 98.64 118.966 99.168 117.324 100.224C115.74 101.221 114.566 102.747 113.804 104.8C113.041 106.853 112.66 109.376 112.66 112.368V114.48C112.66 117.472 113.041 119.995 113.804 122.048C114.566 124.101 115.74 125.627 117.324 126.624C118.966 127.621 121.108 128.12 123.748 128.12Z" fill="#252532"/>
<path d="M170.237 137.624C167.303 137.624 164.927 137.096 163.109 136.04C161.29 134.984 159.97 133.576 159.149 131.816C158.327 129.997 157.917 128.003 157.917 125.832V99.696H152.197V90.28H158.357L160.645 77.08H170.149V90.28H178.597V99.696H170.149V123.808C170.149 125.216 170.471 126.301 171.117 127.064C171.762 127.768 172.818 128.12 174.285 128.12H178.597V136.216C177.893 136.451 177.071 136.656 176.133 136.832C175.194 137.067 174.197 137.243 173.141 137.36C172.085 137.536 171.117 137.624 170.237 137.624Z" fill="#252532"/>
<path d="M200.315 137.624C197.381 137.624 195.005 137.096 193.187 136.04C191.368 134.984 190.048 133.576 189.227 131.816C188.405 129.997 187.995 128.003 187.995 125.832V99.696H182.275V90.28H188.435L190.723 77.08H200.227V90.28H208.675V99.696H200.227V123.808C200.227 125.216 200.549 126.301 201.195 127.064C201.84 127.768 202.896 128.12 204.363 128.12H208.675V136.216C207.971 136.451 207.149 136.656 206.211 136.832C205.272 137.067 204.275 137.243 203.219 137.36C202.163 137.536 201.195 137.624 200.315 137.624Z" fill="#252532"/>
<path d="M230.08 99.4856L219.27 111.339L249.039 137.624H256.761L306.27 74.2317L301.122 70.624L253.27 118.124L230.08 99.4856Z" fill="#8FFE4B"/>
</svg>
