<svg width="100%" height="100%" viewBox="0 0 1580 200" preserveAspectRatio="xMidYMid meet" xmlns="http://www.w3.org/2000/svg">
<g clip-path="url(#clip0_1402_236)">
<path d="M108.896 0H19.1045C8.55337 0 0 8.55337 0 19.1045V108.896C0 119.447 8.55337 128 19.1045 128H108.896C119.447 128 128 119.447 128 108.896V19.1045C128 8.55337 119.447 0 108.896 0Z" fill="#0065FF"/>
<path fill-rule="evenodd" clip-rule="evenodd" d="M41.435 86.7854C51.9679 97.3182 69.045 97.3182 79.5778 86.7854C86.5997 79.7635 90.8378 62.8111 92.2921 35.9283C65.4093 37.3826 48.4569 41.6207 41.435 48.6426C30.9022 59.1754 30.9022 76.2525 41.435 86.7854Z" fill="#A54ADC"/>
<path fill-rule="evenodd" clip-rule="evenodd" d="M97.9581 36.2349L98.2997 29.9198L91.9846 30.2614C78.3534 30.9988 66.9995 32.4516 58.0384 34.6919C49.2231 36.8957 42.0236 40.0273 37.4212 44.6296C24.6721 57.3787 24.6721 78.0492 37.4212 90.7983C50.1703 103.547 70.8408 103.547 83.5899 90.7983C88.1922 86.1959 91.3238 78.9964 93.5276 70.1811C95.7679 61.22 97.2207 49.8661 97.9581 36.2349ZM45.4471 52.6555C47.8666 50.2359 52.6543 47.7375 60.7913 45.7033C67.454 44.0376 75.905 42.792 86.211 42.0085C85.4275 52.3145 84.1819 60.7655 82.5162 67.4282C80.482 75.5652 77.9836 80.3529 75.564 82.7724C67.2475 91.089 53.7637 91.089 45.4471 82.7724C37.1305 74.4558 37.1305 60.972 45.4471 52.6555Z" fill="white"/>
</g>
<path d="M166.836 69.2736V37.0944H179.969V69.3504C179.969 75.7248 183.118 79.4112 189.338 79.4112C195.559 79.4112 198.862 75.7248 198.862 69.3504V37.0944H211.994V69.2736C211.994 84.1728 201.55 91.5456 189.108 91.5456C176.59 91.5456 166.836 84.1728 166.836 69.2736Z" fill="#303030"/>
<path d="M221.216 91.008V48.1536H234.349V53.8368C236.96 50.2272 241.568 47.6928 247.328 47.6928C257.236 47.6928 263.84 54.4512 263.84 65.9712V91.008H250.784V67.7376C250.784 61.9008 247.559 58.6752 242.567 58.6752C237.575 58.6752 234.349 61.9008 234.349 67.7376V91.008H221.216Z" fill="#303030"/>
<path d="M279.571 43.6992C274.886 43.6992 271.738 40.5504 271.738 36.6336C271.738 32.64 274.886 29.4912 279.571 29.4912C284.179 29.4912 287.328 32.64 287.328 36.6336C287.328 40.5504 284.179 43.6992 279.571 43.6992ZM272.966 91.008V48.1536H286.099V91.008H272.966Z" fill="#303030"/>
<path d="M293.005 69.5808C293.005 56.064 301.914 47.5392 314.509 47.5392C325.261 47.5392 332.864 53.4528 335.092 63.6672H321.114C320.039 60.672 317.888 58.752 314.279 58.752C309.594 58.752 306.368 62.4384 306.368 69.5808C306.368 76.7232 309.594 80.4096 314.279 80.4096C317.888 80.4096 319.962 78.6432 321.114 75.4944H335.092C332.864 85.4016 325.261 91.6224 314.509 91.6224C301.914 91.6224 293.005 83.1744 293.005 69.5808Z" fill="#303030"/>
<path d="M361.624 91.6224C349.028 91.6224 339.505 83.1744 339.505 69.5808C339.505 55.9872 349.259 47.5392 361.777 47.5392C374.372 47.5392 384.049 55.9872 384.049 69.5808C384.049 83.1744 374.219 91.6224 361.624 91.6224ZM361.624 80.256C366.308 80.256 370.686 76.8 370.686 69.5808C370.686 62.2848 366.385 58.9056 361.777 58.9056C357.016 58.9056 352.868 62.2848 352.868 69.5808C352.868 76.8 356.862 80.256 361.624 80.256Z" fill="#303030"/>
<path d="M391.016 91.008V48.1536H404.149V55.296C407.144 50.7648 411.829 47.6928 417.589 47.6928V61.5936H413.98C407.759 61.5936 404.149 63.744 404.149 71.1168V91.008H391.016Z" fill="#303030"/>
<path d="M423.866 91.008V48.1536H436.999V53.8368C439.61 50.2272 444.218 47.6928 449.978 47.6928C459.886 47.6928 466.49 54.4512 466.49 65.9712V91.008H453.434V67.7376C453.434 61.9008 450.209 58.6752 445.217 58.6752C440.225 58.6752 436.999 61.9008 436.999 67.7376V91.008H423.866Z" fill="#303030"/>
<path d="M532.979 54.4512C532.979 63.36 526.912 71.6544 513.165 71.6544H505.024V91.008H491.891V37.0944H513.165C526.375 37.0944 532.979 44.544 532.979 54.4512ZM505.024 61.2096H512.167C517.389 61.2096 519.616 58.5984 519.616 54.4512C519.616 50.304 517.389 47.6928 512.167 47.6928H505.024V61.2096Z" fill="#303030"/>
<path d="M539.816 91.008V34.176H552.949V91.008H539.816Z" fill="#303030"/>
<path d="M559.855 69.504C559.855 55.9872 568.226 47.5392 578.748 47.5392C585.122 47.5392 589.654 50.4576 591.957 54.2208V48.1536H605.09V91.008H591.957V84.9408C589.577 88.704 585.046 91.6224 578.671 91.6224C568.226 91.6224 559.855 83.0208 559.855 69.504ZM591.957 69.5808C591.957 62.7456 587.58 58.9824 582.588 58.9824C577.673 58.9824 573.218 62.6688 573.218 69.504C573.218 76.3392 577.673 80.1792 582.588 80.1792C587.58 80.1792 591.957 76.416 591.957 69.5808Z" fill="#303030"/>
<path d="M616.665 76.1088V59.0592H611.443V48.1536H616.665V37.7088H629.798V48.1536H638.399V59.0592H629.798V76.2624C629.798 78.7968 630.873 79.872 633.791 79.872H638.476V91.008H631.794C622.886 91.008 616.665 87.2448 616.665 76.1088Z" fill="#303030"/>
<path d="M647.097 91.008V59.0592H642.335V48.1536H647.097V46.9248C647.097 35.712 654.009 30.1824 667.065 30.8736V42.0096C661.996 41.7024 660.23 43.2384 660.23 47.7696V48.1536H667.295V59.0592H660.23V91.008H647.097Z" fill="#303030"/>
<path d="M692.974 91.6224C680.378 91.6224 670.855 83.1744 670.855 69.5808C670.855 55.9872 680.609 47.5392 693.127 47.5392C705.722 47.5392 715.399 55.9872 715.399 69.5808C715.399 83.1744 705.569 91.6224 692.974 91.6224ZM692.974 80.256C697.658 80.256 702.036 76.8 702.036 69.5808C702.036 62.2848 697.735 58.9056 693.127 58.9056C688.365 58.9056 684.218 62.2848 684.218 69.5808C684.218 76.8 688.212 80.256 692.974 80.256Z" fill="#303030"/>
<path d="M722.366 91.008V48.1536H735.499V55.296C738.494 50.7648 743.179 47.6928 748.939 47.6928V61.5936H745.33C739.109 61.5936 735.499 63.744 735.499 71.1168V91.008H722.366Z" fill="#303030"/>
<path d="M755.216 91.008V48.1536H768.349V53.5296C770.883 50.0736 775.261 47.6928 780.867 47.6928C787.319 47.6928 792.541 50.5344 795.46 55.68C798.301 51.1488 803.677 47.6928 809.898 47.6928C820.496 47.6928 827.332 54.4512 827.332 65.9712V91.008H814.276V67.7376C814.276 62.1312 811.05 59.0592 806.058 59.0592C801.066 59.0592 797.84 62.1312 797.84 67.7376V91.008H784.784V67.7376C784.784 62.1312 781.559 59.0592 776.567 59.0592C771.575 59.0592 768.349 62.1312 768.349 67.7376V91.008H755.216Z" fill="#303030"/>
<defs>
<clipPath id="clip0_1402_236">
<rect width="128" height="128" fill="white"/>
</clipPath>
</defs>
</svg>
