<svg width="100%" height="100%" viewBox="0 0 1580 200" preserveAspectRatio="xMidYMid meet" xmlns="http://www.w3.org/2000/svg">
<path d="M18.8311 71.6114C16.1977 71.4448 13.6311 70.9114 11.1311 70.0114C8.63106 69.1114 6.43106 67.8948 4.53105 66.3614C2.66439 64.7948 1.26439 62.9614 0.331055 60.8614L9.18106 57.0614C9.61439 57.9614 10.3644 58.8448 11.4311 59.7114C12.5311 60.5781 13.8144 61.2948 15.2811 61.8614C16.7477 62.3948 18.2811 62.6614 19.8811 62.6614C21.4477 62.6614 22.8977 62.4448 24.2311 62.0114C25.5977 61.5448 26.7144 60.8448 27.5811 59.9114C28.4477 58.9781 28.8811 57.8614 28.8811 56.5614C28.8811 55.0948 28.3811 53.9614 27.3811 53.1614C26.4144 52.3281 25.1977 51.6948 23.7311 51.2614C22.2644 50.8281 20.7977 50.4114 19.3311 50.0114C16.0644 49.2781 13.0644 48.2781 10.3311 47.0114C7.63105 45.7114 5.48106 44.0614 3.88105 42.0614C2.28105 40.0281 1.48106 37.5448 1.48106 34.6114C1.48106 31.4114 2.34772 28.6448 4.08105 26.3114C5.81439 23.9448 8.08105 22.1281 10.8811 20.8614C13.7144 19.5948 16.7311 18.9614 19.9311 18.9614C23.9311 18.9614 27.5977 19.8114 30.9311 21.5114C34.2644 23.2114 36.8144 25.5448 38.5811 28.5114L30.3311 33.4114C29.8311 32.4114 29.0811 31.5114 28.0811 30.7114C27.0811 29.9114 25.9477 29.2781 24.6811 28.8114C23.4144 28.3114 22.0977 28.0281 20.7311 27.9614C19.0311 27.8948 17.4477 28.0948 15.9811 28.5614C14.5477 28.9948 13.3977 29.6948 12.5311 30.6614C11.6644 31.6281 11.2311 32.8614 11.2311 34.3614C11.2311 35.8281 11.7477 36.9281 12.7811 37.6614C13.8144 38.3614 15.1144 38.9281 16.6811 39.3614C18.2811 39.7948 19.9144 40.2781 21.5811 40.8114C24.5477 41.7448 27.3311 42.8948 29.9311 44.2614C32.5311 45.5948 34.6311 47.2448 36.2311 49.2114C37.8311 51.1781 38.5977 53.5781 38.5311 56.4114C38.5311 59.5448 37.5811 62.2948 35.6811 64.6614C33.8144 67.0281 31.3811 68.8281 28.3811 70.0614C25.3811 71.2948 22.1977 71.8114 18.8311 71.6114Z" fill="#292624"/>
<path d="M68.4092 71.9614C63.8092 71.9614 59.6092 70.7781 55.8092 68.4114C52.0425 66.0448 49.0258 62.8781 46.7592 58.9114C44.5258 54.9114 43.4092 50.4948 43.4092 45.6614C43.4092 41.9948 44.0592 38.5781 45.3592 35.4114C46.6592 32.2114 48.4425 29.4114 50.7092 27.0114C53.0092 24.5781 55.6758 22.6781 58.7092 21.3114C61.7425 19.9448 64.9758 19.2614 68.4092 19.2614C72.2425 19.2614 75.7592 20.0614 78.9592 21.6614C82.1592 23.2281 84.8925 25.4114 87.1592 28.2114C89.4258 30.9781 91.0925 34.1781 92.1592 37.8114C93.2259 41.4114 93.5425 45.2448 93.1092 49.3114H54.5592C54.9925 51.6114 55.8258 53.6948 57.0592 55.5614C58.3258 57.3948 59.9258 58.8448 61.8592 59.9114C63.8258 60.9781 66.0092 61.5281 68.4092 61.5614C70.9425 61.5614 73.2425 60.9281 75.3092 59.6614C77.4092 58.3948 79.1258 56.6448 80.4592 54.4114L91.0092 56.8614C89.0092 61.2948 85.9925 64.9281 81.9592 67.7614C77.9258 70.5614 73.4092 71.9614 68.4092 71.9614ZM54.2092 41.3614H82.6092C82.2758 38.9614 81.4258 36.7948 80.0592 34.8614C78.7258 32.8948 77.0425 31.3448 75.0092 30.2114C73.0092 29.0448 70.8092 28.4614 68.4092 28.4614C66.0425 28.4614 63.8425 29.0281 61.8092 30.1614C59.8092 31.2948 58.1425 32.8448 56.8092 34.8114C55.5092 36.7448 54.6425 38.9281 54.2092 41.3614Z" fill="#292624"/>
<path d="M123.292 71.9614C118.692 71.9614 114.492 70.7781 110.692 68.4114C106.925 66.0448 103.909 62.8781 101.642 58.9114C99.4087 54.9114 98.292 50.4948 98.292 45.6614C98.292 41.9948 98.942 38.5781 100.242 35.4114C101.542 32.2114 103.325 29.4114 105.592 27.0114C107.892 24.5781 110.559 22.6781 113.592 21.3114C116.625 19.9448 119.859 19.2614 123.292 19.2614C127.892 19.2614 132.075 20.4448 135.842 22.8114C139.642 25.1781 142.659 28.3614 144.892 32.3614C147.159 36.3614 148.292 40.7948 148.292 45.6614C148.292 49.2948 147.642 52.6948 146.342 55.8614C145.042 59.0281 143.242 61.8281 140.942 64.2614C138.675 66.6614 136.025 68.5448 132.992 69.9114C129.992 71.2781 126.759 71.9614 123.292 71.9614ZM123.292 61.5614C126.059 61.5614 128.542 60.8281 130.742 59.3614C132.942 57.8948 134.675 55.9614 135.942 53.5614C137.242 51.1281 137.892 48.4948 137.892 45.6614C137.892 42.7614 137.225 40.0948 135.892 37.6614C134.592 35.2281 132.842 33.2948 130.642 31.8614C128.442 30.3948 125.992 29.6614 123.292 29.6614C120.559 29.6614 118.075 30.3948 115.842 31.8614C113.642 33.3281 111.892 35.2781 110.592 37.7114C109.325 40.1448 108.692 42.7948 108.692 45.6614C108.692 48.6281 109.359 51.3114 110.692 53.7114C112.025 56.1114 113.792 58.0281 115.992 59.4614C118.225 60.8614 120.659 61.5614 123.292 61.5614Z" fill="#292624"/>
<path d="M181.687 19.2614C186.553 19.2614 190.97 20.4448 194.937 22.8114C198.937 25.1781 202.12 28.3614 204.487 32.3614C206.853 36.3281 208.037 40.7448 208.037 45.6114C208.037 49.2448 207.353 52.6614 205.987 55.8614C204.62 59.0281 202.72 61.8281 200.287 64.2614C197.887 66.6614 195.087 68.5448 191.887 69.9114C188.72 71.2781 185.32 71.9614 181.687 71.9614C178.187 71.9614 175.12 71.1614 172.487 69.5614C169.887 67.9281 167.753 65.8448 166.087 63.3114V70.6614H155.687V11.6614H166.087V27.9114C167.753 25.3448 169.887 23.2614 172.487 21.6614C175.12 20.0614 178.187 19.2614 181.687 19.2614ZM181.587 61.8614C184.487 61.8614 187.137 61.1281 189.537 59.6614C191.937 58.1948 193.837 56.2281 195.237 53.7614C196.67 51.2948 197.387 48.5781 197.387 45.6114C197.387 42.5781 196.67 39.8281 195.237 37.3614C193.803 34.8948 191.887 32.9448 189.487 31.5114C187.087 30.0448 184.453 29.3114 181.587 29.3114C178.687 29.3114 176.137 30.0448 173.937 31.5114C171.737 32.9781 170.02 34.9448 168.787 37.4114C167.553 39.8781 166.937 42.6114 166.937 45.6114C166.937 48.6114 167.553 51.3448 168.787 53.8114C170.02 56.2781 171.737 58.2448 173.937 59.7114C176.137 61.1448 178.687 61.8614 181.587 61.8614Z" fill="#292624"/>
<path d="M238.038 71.9614C233.438 71.9614 229.238 70.7781 225.438 68.4114C221.671 66.0448 218.655 62.8781 216.388 58.9114C214.155 54.9114 213.038 50.4948 213.038 45.6614C213.038 41.9948 213.688 38.5781 214.988 35.4114C216.288 32.2114 218.071 29.4114 220.338 27.0114C222.638 24.5781 225.305 22.6781 228.338 21.3114C231.371 19.9448 234.605 19.2614 238.038 19.2614C242.638 19.2614 246.821 20.4448 250.588 22.8114C254.388 25.1781 257.405 28.3614 259.638 32.3614C261.905 36.3614 263.038 40.7948 263.038 45.6614C263.038 49.2948 262.388 52.6948 261.088 55.8614C259.788 59.0281 257.988 61.8281 255.688 64.2614C253.421 66.6614 250.771 68.5448 247.738 69.9114C244.738 71.2781 241.505 71.9614 238.038 71.9614ZM238.038 61.5614C240.805 61.5614 243.288 60.8281 245.488 59.3614C247.688 57.8948 249.421 55.9614 250.688 53.5614C251.988 51.1281 252.638 48.4948 252.638 45.6614C252.638 42.7614 251.971 40.0948 250.638 37.6614C249.338 35.2281 247.588 33.2948 245.388 31.8614C243.188 30.3948 240.738 29.6614 238.038 29.6614C235.305 29.6614 232.821 30.3948 230.588 31.8614C228.388 33.3281 226.638 35.2781 225.338 37.7114C224.071 40.1448 223.438 42.7948 223.438 45.6614C223.438 48.6281 224.105 51.3114 225.438 53.7114C226.771 56.1114 228.538 58.0281 230.738 59.4614C232.971 60.8614 235.405 61.5614 238.038 61.5614Z" fill="#292624"/>
<path d="M297.223 31.0614H286.723L286.673 70.6614H276.273L276.323 31.0614H268.373V20.6614H276.323L276.273 4.96143H286.673L286.723 20.6614H297.223V31.0614Z" fill="#292624"/>
<rect x="144.692" y="0.661377" width="11" height="11" fill="#292624"/>
<rect x="286.673" y="70.657" width="11" height="11" fill="#292624"/>
<rect x="185.61" y="81.1592" width="11" height="11" fill="#292624"/>
<rect x="196.61" y="92.1592" width="11" height="11" fill="#292624"/>
<rect x="207.61" y="92.1592" width="11" height="11" fill="#292624"/>
<rect x="218.61" y="81.1592" width="11" height="11" fill="#292624"/>
</svg>
